<svg width="816" height="116" viewBox="0 0 816 116" fill="none" xmlns="http://www.w3.org/2000/svg">
<path d="M51.292 35.9787C46.9662 36.2889 45.6273 40.0108 45.7303 41.8718L40.4775 37.8397C44.4943 38.1498 47.2752 33.1873 46.9662 31.0161L51.292 35.9787Z" fill="white"/>
<path d="M0.926865 70.2727V41.3851C0.926865 39.4269 2.50826 37.8395 4.459 37.8395H42.1978C44.1486 37.8395 45.73 39.4269 45.73 41.3851V70.2727C45.73 72.2308 44.1486 73.8182 42.1978 73.8182H4.45899C2.50825 73.8182 0.926865 72.2308 0.926865 70.2727Z" fill="white"/>
<path d="M46.9667 32.4331V3.54553C46.9667 1.58739 48.5481 0 50.4988 0H106.468C108.419 0 110 1.58739 110 3.54553V32.4331C110 34.3913 108.419 35.9787 106.468 35.9787H50.4988C48.5481 35.9787 46.9667 34.3913 46.9667 32.4331Z" fill="white"/>
<path d="M59.6345 78.7808C54.6907 78.4707 53.6608 82.1926 53.7638 84.0536L48.511 80.0215C52.5278 80.3317 53.7638 75.3691 53.7638 73.198L59.6345 78.7808Z" fill="white"/>
<path d="M53.7634 75.2352V46.3476C53.7634 44.3895 55.3448 42.8021 57.2956 42.8021H95.0344C96.9851 42.8021 98.5665 44.3895 98.5665 46.3476V75.2352C98.5665 77.1934 96.9851 78.7807 95.0344 78.7807H57.2956C55.3448 78.7807 53.7634 77.1933 53.7634 75.2352Z" fill="white"/>
<path d="M0 112.454V83.5669C0 81.6087 1.58139 80.0213 3.53213 80.0213H50.2316C52.1823 80.0213 53.7637 81.6087 53.7637 83.5669V112.454C53.7637 114.413 52.1823 116 50.2316 116H3.53213C1.58139 116 0 114.413 0 112.454Z" fill="white"/>
<path d="M152.4 38.65H163.2V26.95C163.2 8.94999 173.1 1.59999 186.45 1.59999C189.15 1.59999 192.3 1.75 195.15 2.19999V14.35H188.85C179.7 14.35 177.3 19 177.3 26.95V38.65H194.7V50.5H177.3V112H163.2V50.5H152.4V38.65ZM251.007 38.65H264.957V112H252.357L250.857 100.9C246.657 108.55 236.907 113.8 226.107 113.8C209.007 113.8 199.407 102.25 199.407 84.25V38.65H213.507V79.6C213.507 95.35 220.257 101.35 231.057 101.35C243.957 101.35 251.007 93.1 251.007 77.35V38.65ZM292.015 112H277.915V38.65H290.665L292.165 49.9C296.815 41.5 306.115 36.55 316.465 36.55C335.815 36.55 344.665 48.4 344.665 67.15V112H330.565V70.3C330.565 55.45 323.665 49.45 312.865 49.45C299.665 49.45 292.015 58.9 292.015 73.15V112ZM386.094 113.8C364.794 113.8 351.894 97.9 351.894 75.55C351.894 53.05 364.944 36.55 386.694 36.55C397.944 36.55 407.394 41.5 412.344 50.5V1.59999H426.294V112H413.694L412.494 98.65C407.694 108.7 397.794 113.8 386.094 113.8ZM388.944 101.05C403.344 101.05 412.194 90.4 412.194 75.1C412.194 60.1 403.344 49.3 388.944 49.3C374.544 49.3 366.144 60.1 366.144 75.1C366.144 90.25 374.544 101.05 388.944 101.05ZM481.136 38.05V50.95H474.836C461.486 50.95 453.236 59.05 453.236 73.15V112H439.136V38.8H452.336L453.236 49.9C456.236 42.25 463.586 37.15 473.636 37.15C476.186 37.15 478.286 37.45 481.136 38.05ZM480.86 90.7H494.36C494.36 98.2 500.06 102.7 509.36 102.7C519.26 102.7 524.96 98.65 524.96 91.9C524.96 86.95 522.56 83.95 514.91 82L502.01 79C488.96 75.85 482.81 69.4 482.81 58.6C482.81 45.1 494.21 36.55 510.41 36.55C526.46 36.55 536.96 45.55 537.26 59.5H523.76C523.46 52.15 518.51 47.5 509.96 47.5C501.11 47.5 496.16 51.4 496.16 58.15C496.16 63.1 499.76 66.4 506.96 68.2L519.86 71.35C532.31 74.35 538.46 80.05 538.46 91C538.46 104.95 526.46 113.8 509.06 113.8C491.81 113.8 480.86 104.65 480.86 90.7ZM541.796 75.4C541.796 52.45 556.346 36.55 577.796 36.55C596.246 36.55 609.146 47.05 611.696 63.4H597.596C595.196 54.1 587.696 49.15 578.246 49.15C564.896 49.15 555.746 59.35 555.746 75.25C555.746 91 564.296 101.2 577.646 101.2C587.696 101.2 595.196 95.95 597.746 87.25H611.846C608.996 103.15 595.346 113.8 577.646 113.8C556.046 113.8 541.796 98.5 541.796 75.4ZM614.423 75.25C614.423 52.6 630.623 36.7 652.673 36.7C674.573 36.7 690.773 52.6 690.773 75.25C690.773 97.9 674.573 113.8 652.673 113.8C630.623 113.8 614.423 97.9 614.423 75.25ZM628.673 75.25C628.673 90.55 638.423 101.2 652.673 101.2C666.773 101.2 676.673 90.55 676.673 75.25C676.673 59.95 666.773 49.3 652.673 49.3C638.423 49.3 628.673 59.95 628.673 75.25ZM740.882 38.05V50.95H734.582C721.232 50.95 712.982 59.05 712.982 73.15V112H698.882V38.8H712.082L712.982 49.9C715.982 42.25 723.332 37.15 733.382 37.15C735.932 37.15 738.032 37.45 740.882 38.05ZM775.62 113.8C754.02 113.8 739.17 98.2 739.17 75.4C739.17 52.45 753.72 36.55 775.02 36.55C795.87 36.55 809.52 50.95 809.52 72.7V77.95L752.82 78.1C753.87 93.55 761.97 102.1 775.92 102.1C786.87 102.1 794.07 97.6 796.47 89.2H809.67C806.07 104.95 793.77 113.8 775.62 113.8ZM775.02 48.4C762.72 48.4 754.92 55.75 753.12 68.65H795.42C795.42 56.5 787.47 48.4 775.02 48.4Z" fill="white"/>
</svg>
